<svg width="141" height="134" viewBox="0 0 141 134" fill="none" xmlns="http://www.w3.org/2000/svg">
<path d="M2.22959 105.434H24.9697V118.446L19.3696 121.963C18.7578 122.347 18.392 122.988 18.392 123.672V131.934C18.392 133.075 19.3892 134 20.6216 134H32.8626C33.4809 134 34.071 133.762 34.4934 133.342L39.6493 128.217H97.7559L102.912 133.342C103.334 133.762 103.924 134 104.543 134H120.374C121.606 134 122.604 133.075 122.604 131.934V123.672C122.604 122.988 122.238 122.347 121.626 121.963L116.026 118.446V105.434H138.77C140.003 105.434 141 104.509 141 103.368V83.9114C141 82.7707 140.003 81.8459 138.77 81.8459H127.355V45.4311C127.355 44.6384 126.865 43.9163 126.094 43.5714L118.125 40.0041V30.5591C118.125 29.4184 117.128 28.4936 115.895 28.4936C99.8812 28.4936 103.366 28.4936 87.5791 28.4936V22.2143C87.5791 16.5201 82.5777 11.8868 76.4311 11.8868H72.7296V2.06551C72.7296 0.92484 71.7324 0 70.5 0H50.1833C42.9458 0 37.0561 5.45525 37.0561 12.1611C37.0561 18.8659 42.9458 24.3212 50.1833 24.3212H53.421V28.4936C37.3626 28.4936 43.3472 28.4936 25.0829 28.4936C23.8506 28.4936 22.8533 29.4184 22.8533 30.5591V40.0051L14.9039 43.5724C14.1331 43.9173 13.6454 44.6394 13.6454 45.4311V81.8459H2.22959C0.997221 81.8459 0 82.7707 0 83.9114V103.368C0 104.509 0.997221 105.434 2.22959 105.434ZM118.145 124.768V129.869H105.512L100.356 124.744C99.0966 123.493 101.365 124.33 38.6804 124.086C38.062 124.086 37.472 124.324 37.0496 124.744L31.8936 129.869H22.8512V124.768L28.4513 121.251C29.0631 120.867 29.4289 120.226 29.4289 119.541V105.434H111.567V119.541C111.567 121.378 113.499 121.56 118.145 124.768ZM114.926 43.1599L122.895 46.7271V51.0357H116.392V55.1667H122.895V81.8459H109.146V32.6246H113.666V41.3001C113.666 42.0928 114.156 42.815 114.926 43.1599ZM88.4914 75.8218V81.8459H72.7296V75.8218H68.2704V81.8459H52.5087V75.8218H48.0495V81.8459H36.3136V43.5099H60.2665V50.7391C60.2665 51.4885 60.7042 52.1794 61.4118 52.5434L68.2704 56.0833V62.9608H72.7296V56.0833L79.5882 52.5434C80.2959 52.1794 80.7335 51.4885 80.7335 50.7391V43.5099H104.686V81.8459H92.9505V75.8218H88.4914ZM76.2743 32.6246C76.2743 33.1664 76.2743 49.7346 76.2743 49.5259L70.5 52.5061L64.7257 49.5259C64.7257 49.297 64.7257 32.1766 64.7257 32.6246H76.2743ZM104.68 39.3788H80.7335V32.6246C89.2686 32.6246 90.0337 32.6246 104.68 32.6246V39.3788ZM41.5153 12.1611C41.5153 7.73356 45.404 4.13102 50.1833 4.13102H68.2704V11.8868H64.569C59.1705 11.8868 54.661 15.4623 53.6418 20.1902H50.1833C45.404 20.1902 41.5153 16.5886 41.5153 12.1611ZM57.8802 22.2143C57.8802 18.7974 60.8805 16.0178 64.569 16.0178H76.4311C80.1195 16.0178 83.1199 18.7974 83.1199 22.2143V28.4936C73.9284 28.4936 62.9388 28.4936 57.8802 28.4936V22.2143ZM60.2665 32.6246V39.3788H36.3202V32.6246C50.9639 32.6246 51.6377 32.6246 60.2665 32.6246ZM18.1046 55.1667H24.6083V51.0357H18.1046V46.7261L26.054 43.1589C26.8248 42.814 27.3125 42.0918 27.3125 41.3001V32.6246H31.8545V81.8459H18.1046V55.1667ZM4.45919 85.9769C65.0832 85.9769 76.1338 85.9769 136.541 85.9769V91.5743H100.6V95.7054H136.541V101.303C111.838 101.303 33.4625 101.303 4.45919 101.303L4.45919 85.9769Z" fill="#2F4858"/>
</svg>
