<svg width="132" height="104" viewBox="0 0 132 104" fill="none" xmlns="http://www.w3.org/2000/svg">
<path d="M33.8359 24.1305H2.3348C1.71557 24.1305 1.1217 24.3769 0.683845 24.8156C0.245986 25.2542 0 25.8492 0 26.4695V58.0283C0 58.6486 0.245986 59.2436 0.683845 59.6822C1.1217 60.1209 1.71557 60.3673 2.3348 60.3673H33.8359C34.4551 60.3673 35.0489 60.1209 35.4868 59.6822C35.9247 59.2436 36.1707 58.6486 36.1707 58.0283V26.4695C36.1707 25.8492 35.9247 25.2542 35.4868 24.8156C35.0489 24.3769 34.4551 24.1305 33.8359 24.1305ZM16.7311 28.8086H19.4395V34.1089H16.7311V28.8086ZM31.5011 55.6892H4.66959V28.8086H12.0616V36.448C12.0616 37.0684 12.3075 37.6633 12.7454 38.102C13.1833 38.5406 13.7771 38.7871 14.3963 38.7871H21.7743C22.3935 38.7871 22.9874 38.5406 23.4253 38.102C23.8631 37.6633 24.1091 37.0684 24.1091 36.448V28.8086H31.5011V55.6892ZM129.647 24.1445H98.1735C97.5543 24.1445 96.9604 24.3909 96.5225 24.8296C96.0847 25.2683 95.8387 25.8632 95.8387 26.4836V46.5434C92.3781 44.2424 88.3181 43.0124 84.1647 43.0068H84.09V26.4836C84.09 25.8632 83.844 25.2683 83.4062 24.8296C82.9683 24.3909 82.3744 24.1445 81.7552 24.1445H50.2822C49.6629 24.1445 49.0691 24.3909 48.6312 24.8296C48.1933 25.2683 47.9474 25.8632 47.9474 26.4836V58.0142C47.9474 58.6346 48.1933 59.2295 48.6312 59.6682C49.0691 60.1069 49.6629 60.3533 50.2822 60.3533H63.2449C62.6317 63.4435 62.7125 66.6317 63.4816 69.6867C64.2507 72.7417 65.6888 75.587 67.6916 78.0162C69.6943 80.4454 72.2116 82.3977 75.0608 83.7314C77.91 85.0652 81.0198 85.747 84.1647 85.7275C87.3577 85.7077 90.5046 84.9623 93.3685 83.5475L111.72 101.937C113.038 103.258 114.826 104 116.691 104C118.555 104 120.343 103.258 121.662 101.937C122.98 100.617 123.72 98.8252 123.72 96.9574C123.72 95.0896 122.98 93.2983 121.662 91.9775L103.305 73.5924C105.36 69.5028 105.983 64.8403 105.075 60.3533H129.665C130.284 60.3533 130.878 60.1069 131.316 59.6682C131.754 59.2295 132 58.6346 132 58.0142V26.4836C132 26.1748 131.939 25.8691 131.82 25.5841C131.702 25.2991 131.528 25.0404 131.31 24.8229C131.091 24.6055 130.831 24.4336 130.546 24.3171C130.26 24.2007 129.955 24.142 129.647 24.1445ZM112.565 28.8226H115.274V34.1089H112.565V28.8226ZM64.6458 28.8226H67.3542V34.1089H64.6458V28.8226ZM52.5983 55.6752V28.8226H59.9762V36.448C59.9762 37.0684 60.2222 37.6633 60.6601 38.102C61.0979 38.5406 61.6918 38.7871 62.311 38.7871H69.689C70.3082 38.7871 70.9021 38.5406 71.3399 38.102C71.7778 37.6633 72.0238 37.0684 72.0238 36.448V28.8226H79.4017V43.5822C76.1872 44.3244 73.188 45.8026 70.6392 47.9007C68.0904 49.9988 66.0614 52.6598 64.7112 55.6752H52.5983ZM67.4896 64.3671C67.4887 61.0677 68.4644 57.8421 70.2933 55.0982C72.1223 52.3543 74.7223 50.2154 77.7647 48.9519C80.8071 47.6884 84.1551 47.3571 87.3854 47.9998C90.6157 48.6426 93.5832 50.2306 95.9126 52.563C98.2421 54.8954 99.8288 57.8675 100.472 61.1033C101.116 64.3392 100.787 67.6935 99.5274 70.7421C98.2679 73.7908 96.1343 76.3968 93.3965 78.2306C90.6586 80.0645 87.4394 81.0438 84.146 81.0447C79.7316 81.0398 75.4993 79.2814 72.3769 76.1551C69.2546 73.0287 67.497 68.7896 67.4896 64.3671ZM118.341 95.285C118.56 95.5046 118.734 95.7653 118.852 96.0521C118.971 96.3389 119.031 96.6463 119.031 96.9567C119.031 97.2671 118.97 97.5744 118.851 97.8611C118.732 98.1477 118.558 98.4082 118.339 98.6275C118.12 98.8468 117.86 99.0207 117.573 99.1393C117.287 99.2579 116.98 99.3188 116.67 99.3186C116.361 99.3184 116.054 99.257 115.768 99.138C115.482 99.0191 115.222 98.8448 115.003 98.6252L97.3843 80.9745C98.6149 79.9873 99.733 78.8672 100.718 77.6343L118.341 95.285ZM127.312 55.6752H103.576C102.776 53.9329 101.744 52.3073 100.508 50.8426V28.8226H107.896V36.448C107.896 37.0684 108.142 37.6633 108.579 38.102C109.017 38.5406 109.611 38.7871 110.23 38.7871H117.608C118.228 38.7871 118.821 38.5406 119.259 38.102C119.697 37.6633 119.943 37.0684 119.943 36.448V28.8226H127.312V55.6752ZM94.0736 57.6587C94.2495 57.914 94.373 58.2019 94.4369 58.5056C94.5007 58.8092 94.5036 59.1226 94.4453 59.4273C94.3871 59.7321 94.2689 60.0222 94.0977 60.2808C93.9264 60.5393 93.7055 60.7612 93.4479 60.9334C93.0605 61.1918 92.6057 61.3301 92.1404 61.331C91.7587 61.3308 91.3829 61.2369 91.0459 61.0575C90.7089 60.8781 90.4209 60.6186 90.2072 60.3018C89.5373 59.3055 88.6334 58.4892 87.5749 57.9248C86.5164 57.3603 85.3358 57.0649 84.1367 57.0646C83.5175 57.0646 82.9236 56.8181 82.4857 56.3795C82.0479 55.9408 81.8019 55.3458 81.8019 54.7255C81.8019 54.1051 82.0479 53.5102 82.4857 53.0715C82.9236 52.6329 83.5175 52.3864 84.1367 52.3864C86.0969 52.3824 88.0281 52.8607 89.7606 53.7791C91.4932 54.6976 92.9742 56.0282 94.0736 57.654V57.6587ZM8.05971 10.4048C7.85337 10.1775 7.69373 9.9117 7.58991 9.62258C7.4861 9.33347 7.44015 9.0267 7.45467 8.71979C7.4692 8.41289 7.54392 8.11185 7.67457 7.83387C7.80523 7.5559 7.98925 7.30642 8.21615 7.0997C8.44304 6.89297 8.70835 6.73304 8.99693 6.62904C9.28552 6.52503 9.59173 6.47899 9.89808 6.49355C10.2044 6.5081 10.5049 6.58296 10.7824 6.71385C11.0598 6.84475 11.3089 7.02911 11.5152 7.25642L15.1435 11.2609L24.6601 0.828654C25.0781 0.370208 25.6607 0.0968833 26.2799 0.068809C26.899 0.0407348 27.5039 0.26021 27.9615 0.678953C28.4191 1.0977 28.6919 1.68141 28.72 2.30167C28.748 2.92194 28.5289 3.52795 28.1109 3.9864L16.8619 16.3226C16.6433 16.5627 16.3772 16.7544 16.0805 16.8857C15.7839 17.017 15.4631 17.0849 15.1388 17.0852C14.8141 17.0844 14.4932 17.0157 14.1965 16.8836C13.8998 16.7515 13.6339 16.5588 13.4157 16.318L8.05971 10.4048ZM103.889 10.4048C103.683 10.1775 103.523 9.9117 103.419 9.62258C103.315 9.33347 103.269 9.0267 103.284 8.71979C103.299 8.41289 103.373 8.11185 103.504 7.83387C103.635 7.5559 103.819 7.30642 104.045 7.0997C104.272 6.89297 104.538 6.73304 104.826 6.62904C105.115 6.52503 105.421 6.47899 105.727 6.49355C106.034 6.5081 106.334 6.58296 106.612 6.71385C106.889 6.84475 107.138 7.02911 107.345 7.25642L110.978 11.2562L120.489 0.819298C120.693 0.58088 120.942 0.38588 121.222 0.245896C121.502 0.105913 121.808 0.0238039 122.12 0.00445527C122.433 -0.0148933 122.746 0.0289127 123.041 0.133268C123.336 0.237623 123.608 0.400396 123.839 0.611905C124.07 0.823413 124.256 1.07934 124.387 1.36445C124.517 1.64957 124.589 1.95806 124.598 2.27157C124.607 2.58508 124.553 2.89721 124.439 3.1894C124.326 3.48158 124.154 3.74785 123.936 3.97236L112.687 16.3226C112.468 16.5627 112.202 16.7544 111.905 16.8857C111.609 17.017 111.288 17.0849 110.963 17.0852C110.639 17.0844 110.318 17.0157 110.021 16.8836C109.725 16.7515 109.459 16.5588 109.24 16.318L103.889 10.4048ZM57.6601 12.786L61.8627 8.57565L57.6601 4.36533C57.2348 3.92417 56.9995 3.33332 57.0048 2.72002C57.0101 2.10673 57.2557 1.52006 57.6885 1.08638C58.1214 0.652694 58.707 0.406695 59.3192 0.401366C59.9314 0.396036 60.5212 0.631803 60.9615 1.05788L65.1641 5.26821L69.3668 1.05788C69.8071 0.631803 70.3969 0.396036 71.0091 0.401366C71.6213 0.406695 72.2068 0.652694 72.6397 1.08638C73.0726 1.52006 73.3182 2.10673 73.3235 2.72002C73.3288 3.33332 73.0935 3.92417 72.6682 4.36533L68.4655 8.57565L72.6682 12.786C72.9955 13.1131 73.2186 13.5303 73.309 13.9846C73.3995 14.4388 73.3532 14.9098 73.1761 15.3377C72.9991 15.7657 72.6992 16.1313 72.3145 16.3882C71.9297 16.6452 71.4775 16.7819 71.0151 16.7811C70.3964 16.7797 69.8036 16.5324 69.3668 16.0934L65.1641 11.8831L60.9615 16.0934C60.5212 16.5195 59.9314 16.7553 59.3192 16.7499C58.707 16.7446 58.1214 16.4986 57.6885 16.0649C57.2557 15.6312 57.0101 15.0446 57.0048 14.4313C56.9995 13.818 57.2348 13.2271 57.6601 12.786Z" fill="#2F4858"/>
</svg>
