<svg width="151" height="112" viewBox="0 0 151 112" fill="none" xmlns="http://www.w3.org/2000/svg">
<path d="M112.517 0C112.041 0.000939719 111.575 0.144048 111.181 0.411193C110.786 0.678337 110.48 1.05725 110.302 1.49933C110.125 1.94142 110.083 2.42696 110.182 2.89295C110.282 3.35894 110.519 3.78416 110.862 4.11485L113.967 7.19646H50.3485C49.714 7.19646 49.1055 7.44869 48.6568 7.89735C48.2082 8.34601 47.9561 8.95435 47.9561 9.58885C47.9561 10.2234 48.2082 10.8317 48.6568 11.2803C49.1055 11.729 49.714 11.9812 50.3485 11.9812H113.924L110.862 15.029C110.411 15.4763 110.157 16.0844 110.155 16.7193C110.152 17.3542 110.402 17.9638 110.85 18.4143C111.297 18.8648 111.905 19.1194 112.54 19.1216C113.175 19.1239 113.785 18.8739 114.235 18.4266L121.427 11.2634C121.65 11.0411 121.827 10.7771 121.948 10.486C122.069 10.1949 122.132 9.88249 122.132 9.56724C122.132 9.25198 122.069 8.94016 121.948 8.64906C121.827 8.35797 121.65 8.09339 121.427 7.87107L114.235 0.722508C114.011 0.493575 113.743 0.311951 113.447 0.188658C113.151 0.0653649 112.833 0.00280042 112.512 0.00467264L112.517 0ZM21.4149 7.20113C21.1007 7.21684 20.7927 7.29418 20.5085 7.42892C20.2242 7.56366 19.9693 7.75345 19.7583 7.98672C19.5472 8.21998 19.3842 8.49239 19.2785 8.78866C19.1728 9.08493 19.1264 9.39908 19.1421 9.71326C19.1578 10.0274 19.2353 10.3355 19.37 10.6198C19.5048 10.904 19.6942 11.1587 19.9274 11.3697C20.1607 11.5808 20.4332 11.7441 20.7295 11.8498C21.0258 11.9555 21.34 12.0016 21.6542 11.9859H26.4389C27.0734 11.9859 27.682 11.7337 28.1306 11.285C28.5793 10.8364 28.8313 10.228 28.8313 9.59352C28.8313 8.95902 28.5793 8.35069 28.1306 7.90202C27.682 7.45336 27.0734 7.20113 26.4389 7.20113H21.6542C21.5745 7.19714 21.4946 7.19714 21.4149 7.20113ZM35.7693 7.20113C35.4551 7.21684 35.1471 7.29418 34.8628 7.42892C34.5786 7.56366 34.3237 7.75345 34.1126 7.98672C33.9016 8.21998 33.7385 8.49239 33.6328 8.78866C33.5271 9.08493 33.4808 9.39908 33.4965 9.71326C33.5122 10.0274 33.5896 10.3355 33.7244 10.6198C33.8591 10.904 34.0485 11.1587 34.2818 11.3697C34.5151 11.5808 34.7876 11.7441 35.0839 11.8498C35.3801 11.9555 35.6943 12.0016 36.0085 11.9859H40.7933C41.4278 11.9859 42.0363 11.7337 42.485 11.285C42.9336 10.8364 43.1857 10.228 43.1857 9.59352C43.1857 8.95902 42.9336 8.35069 42.485 7.90202C42.0363 7.45336 41.4278 7.20113 40.7933 7.20113H36.0085C35.9288 7.19714 35.849 7.19714 35.7693 7.20113ZM2.27576 26.3403C1.96159 26.356 1.65359 26.4333 1.36934 26.5681C1.08509 26.7028 0.830167 26.8926 0.619121 27.1259C0.408074 27.3591 0.245039 27.6315 0.139322 27.9278C0.0336064 28.2241 -0.0127199 28.5382 0.00298874 28.8524C0.0186974 29.1666 0.0961334 29.4747 0.230875 29.7589C0.365617 30.0431 0.555026 30.2978 0.788288 30.5089C1.02155 30.7199 1.2941 30.8833 1.59037 30.989C1.88664 31.0947 2.20083 31.1408 2.515 31.1251H6.94571C7.58022 31.1251 8.18873 30.8728 8.63739 30.4242C9.08605 29.9755 9.33811 29.3672 9.33811 28.7327C9.33811 28.0982 9.08605 27.4898 8.63739 27.0412C8.18873 26.5925 7.58022 26.3403 6.94571 26.3403H2.515C2.43531 26.3363 2.35546 26.3363 2.27576 26.3403ZM16.6301 26.3403C16.316 26.356 16.0079 26.4333 15.7237 26.5681C15.4395 26.7028 15.1845 26.8926 14.9735 27.1259C14.7624 27.3591 14.5994 27.6315 14.4937 27.9278C14.388 28.2241 14.3416 28.5382 14.3574 28.8524C14.3731 29.1666 14.4505 29.4747 14.5852 29.7589C14.72 30.0431 14.9094 30.2978 15.1426 30.5089C15.3759 30.7199 15.6485 30.8833 15.9447 30.989C16.241 31.0947 16.5552 31.1408 16.8694 31.1251H26.549C25.5777 32.3548 24.86 33.8044 24.5346 35.4408L24.4389 35.9099H18.3096C17.6751 35.9099 17.0666 36.1621 16.6179 36.6107C16.1692 37.0594 15.9172 37.6677 15.9172 38.3022C15.9172 38.9367 16.1692 39.5451 16.6179 39.9937C17.0666 40.4424 17.6751 40.6946 18.3096 40.6946H23.4867L17.3909 71.3267C17.3155 71.64 17.3042 71.9652 17.3576 72.2829C17.411 72.6006 17.528 72.9046 17.7016 73.1759C17.8753 73.4473 18.1019 73.6806 18.368 73.8622C18.634 74.0439 18.9341 74.1702 19.25 74.2331C19.566 74.296 19.8914 74.2944 20.2068 74.2284C20.5221 74.1625 20.8209 74.0336 21.0852 73.8494C21.3494 73.6651 21.5738 73.4291 21.7447 73.1561C21.9157 72.883 22.0297 72.5783 22.08 72.2601L28.6734 39.1351C28.7677 38.8903 28.821 38.6315 28.8313 38.3694L29.2237 36.3742C29.7739 33.6086 32.7931 31.1251 35.487 31.1251H107.254C108.603 31.1251 109.479 31.6135 110.053 32.3312C110.627 33.0489 110.934 34.058 110.661 35.4408L110.565 35.9099H80.1912C79.5958 35.9157 79.024 36.1438 78.5875 36.5488C78.151 36.9539 77.8813 37.5068 77.8311 38.1002C77.7808 38.6935 77.9537 39.2845 78.3158 39.7572C78.6779 40.2299 79.2033 40.5507 79.7893 40.6567C79.9217 40.6839 80.0562 40.7 80.1912 40.7046H109.613L101.134 83.3033C100.584 86.0641 97.5648 88.5524 94.8757 88.5524H63.7746C63.1401 88.5524 62.5316 88.8041 62.083 89.2528C61.6343 89.7014 61.3822 90.3103 61.3822 90.9448C61.3822 91.5793 61.6343 92.1877 62.083 92.6363C62.5316 93.085 63.1401 93.3372 63.7746 93.3372H94.8757C100.134 93.3372 104.795 89.4228 105.828 84.2361L113.536 45.4894H133.891C135.886 45.4894 136.599 46.0105 137.288 46.8765C137.896 47.623 138.35 48.8722 138.743 50.2741H119.273C118.639 50.2741 118.03 50.5258 117.582 50.9745C117.133 51.4231 116.881 52.032 116.881 52.6665C116.881 53.301 117.133 53.9094 117.582 54.358C118.03 54.8067 118.639 55.0589 119.273 55.0589H121.116L117.723 72.1071C117.379 73.8296 117.757 75.6096 118.809 76.9158C119.857 78.2268 121.537 78.9829 123.293 78.9829H145.049L143.628 86.16H139.369C138.735 86.16 138.126 86.4117 137.678 86.8604C137.229 87.309 136.977 87.9179 136.977 88.5524C136.977 89.1869 137.229 89.7953 137.678 90.2439C138.126 90.6926 138.735 90.9448 139.369 90.9448H142.671L142.288 92.8682C141.743 95.6338 138.724 98.122 136.03 98.122H126.967C128.403 90.9209 123.675 84.9925 116.393 84.9925C109.12 84.9925 102.039 90.9209 100.603 98.122H57.5879C59.0233 90.9209 54.296 84.9925 47.0135 84.9925C39.7406 84.9925 32.6592 90.9209 31.2237 98.122H18.8024C18.1182 98.122 17.788 97.9114 17.5584 97.6291C17.3335 97.342 17.1756 96.9159 17.3191 96.1934L17.8885 93.3372H25.4581C26.0926 93.3372 26.7011 93.085 27.1497 92.6363C27.5984 92.1877 27.8504 91.5793 27.8504 90.9448C27.8504 90.3103 27.5984 89.7014 27.1497 89.2528C26.7011 88.8041 26.0926 88.5524 25.4581 88.5524H6.35719C5.72268 88.5524 5.11417 88.8041 4.66551 89.2528C4.21685 89.7014 3.96479 90.3103 3.96479 90.9448C3.96479 91.5793 4.21685 92.1877 4.66551 92.6363C5.11417 93.085 5.72268 93.3372 6.35719 93.3372H13.008L12.6253 95.2606C12.2425 97.1937 12.6731 99.1698 13.831 100.62C14.9889 102.065 16.8359 102.907 18.8072 102.907H31.2046C32.1615 107.768 36.2095 111.251 41.779 111.251C47.3532 111.251 52.7935 107.768 55.6883 102.907H100.584C101.541 107.768 105.589 111.251 111.158 111.251C116.733 111.251 122.173 107.768 125.068 102.907H136.03C141.293 102.907 145.949 98.9924 146.987 93.8057L147.862 89.3941C147.958 89.1463 148.011 88.8844 148.02 88.619L150.317 77.0589C150.387 76.7106 150.379 76.3511 150.293 76.0064L143.561 49.6901C143.097 47.8527 142.508 45.7331 141.03 43.8814C139.551 42.0345 137.03 40.7046 133.891 40.7046H114.489L115.35 36.3882C115.867 33.7949 115.292 31.2304 113.79 29.3547C112.283 27.4695 109.886 26.3502 107.259 26.3502H16.8694C16.7897 26.3462 16.7098 26.3462 16.6301 26.3502V26.3403ZM5.61554 35.9099C4.98104 35.9422 4.38538 36.2257 3.9596 36.6972C3.53382 37.1687 3.3128 37.7898 3.34516 38.4243C3.37752 39.0588 3.66061 39.6544 4.13215 40.0802C4.6037 40.506 5.22507 40.727 5.85957 40.6946H8.38594C9.02044 40.6946 9.62895 40.4424 10.0776 39.9937C10.5263 39.5451 10.7783 38.9367 10.7783 38.3022C10.7783 37.6677 10.5263 37.0594 10.0776 36.6107C9.62895 36.1621 9.02044 35.9099 8.38594 35.9099H5.85957C5.77987 35.9059 5.70003 35.9059 5.62033 35.9099H5.61554ZM64.4732 35.9099C63.8387 35.9422 63.243 36.2257 62.8173 36.6972C62.3915 37.1687 62.1705 37.7898 62.2028 38.4243C62.2352 39.0588 62.5183 39.6544 62.9898 40.0802C63.4614 40.506 64.0827 40.727 64.7172 40.6946H69.7987C70.4332 40.6946 71.0417 40.4424 71.4904 39.9937C71.939 39.5451 72.1911 38.9367 72.1911 38.3022C72.1911 37.6677 71.939 37.0594 71.4904 36.6107C71.0417 36.1621 70.4332 35.9099 69.7987 35.9099H64.7172C64.6375 35.9059 64.5577 35.9059 64.478 35.9099H64.4732ZM125.986 55.049H139.992L144.891 74.1881H123.293C122.819 74.1881 122.661 74.0445 122.546 73.8914C122.427 73.7479 122.312 73.5279 122.417 73.0159L125.986 55.0443V55.049ZM12.8023 78.9729C12.4881 78.989 12.1802 79.0669 11.8961 79.2019C11.6119 79.3369 11.3572 79.5268 11.1464 79.7603C10.9355 79.9938 10.7728 80.2664 10.6673 80.5628C10.5619 80.8592 10.5159 81.1732 10.5319 81.4874C10.5479 81.8016 10.6257 82.1098 10.7607 82.3939C10.8957 82.678 11.0854 82.9324 11.3189 83.1433C11.5524 83.3541 11.8251 83.5168 12.1215 83.6222C12.4179 83.7276 12.7321 83.7737 13.0463 83.7577H32.1855C32.82 83.7577 33.4285 83.5055 33.8771 83.0568C34.3258 82.6082 34.5779 81.9998 34.5779 81.3653C34.5779 80.7308 34.3258 80.1225 33.8771 79.6738C33.4285 79.2252 32.82 78.9729 32.1855 78.9729H13.0463C12.9666 78.9689 12.8868 78.9689 12.8071 78.9729H12.8023ZM46.0709 89.7194C50.6882 89.7194 53.6883 93.4183 52.7553 98.1074C51.8222 102.797 47.3437 106.5 42.7264 106.5C38.1138 106.5 35.1185 102.801 36.0564 98.1074C36.9894 93.4183 41.4584 89.7194 46.0709 89.7194ZM115.45 89.7194C120.068 89.7194 123.068 93.4183 122.135 98.1074C121.202 102.797 116.723 106.5 112.106 106.5C107.493 106.5 104.498 102.801 105.436 98.1074C106.369 93.4183 110.838 89.7194 115.45 89.7194ZM45.1187 94.5188C44.6469 94.5178 44.1611 94.61 43.6892 94.7898C43.2172 94.9697 42.7684 95.2339 42.3685 95.5672C41.9685 95.9006 41.6252 96.296 41.3582 96.7319C41.0912 97.1678 40.9057 97.6354 40.8124 98.1074C40.6253 99.0581 40.8229 99.9696 41.362 100.642C41.9011 101.315 42.7376 101.694 43.6881 101.696C44.1597 101.696 44.6451 101.604 45.1165 101.424C45.5879 101.244 46.0362 100.979 46.4356 100.646C46.8351 100.313 47.1779 99.9173 47.4446 99.4818C47.7112 99.0462 47.8964 98.579 47.9896 98.1074C48.1766 97.1576 47.9795 96.2469 47.4414 95.5743C46.9033 94.9016 46.0681 94.522 45.1187 94.5188ZM114.498 94.5188C114.026 94.5178 113.541 94.61 113.069 94.7898C112.597 94.9697 112.148 95.2339 111.748 95.5672C111.348 95.9006 111.005 96.296 110.738 96.7319C110.471 97.1678 110.285 97.6354 110.192 98.1074C110.005 99.0581 110.202 99.9696 110.741 100.642C111.281 101.315 112.117 101.694 113.068 101.696C113.539 101.696 114.024 101.604 114.496 101.424C114.967 101.244 115.416 100.979 115.815 100.646C116.214 100.313 116.557 99.9173 116.824 99.4818C117.091 99.0462 117.276 98.579 117.369 98.1074C117.556 97.1576 117.359 96.2469 116.821 95.5743C116.283 94.9016 115.448 94.522 114.498 94.5188Z" fill="#2F4858"/>
</svg>
