<svg width="137" height="101" viewBox="0 0 137 101" fill="none" xmlns="http://www.w3.org/2000/svg">
<path d="M137 26.6965V10.2883C137 4.55261 131.863 0 125.549 0H11.4499C5.1375 0 0 4.55261 0 10.2883V90.7117C0 96.4474 5.1375 101 11.4499 101H125.549C131.863 101 137 96.4474 137 90.7117V26.7345C137 26.7279 137 26.7216 137 26.715C137 26.7084 137 26.7021 137 26.6965ZM11.4499 4.0603H125.549C129.302 4.0603 132.356 6.79136 132.356 10.2883V24.6156H4.64407V10.2883C4.64407 6.79136 7.69725 4.0603 11.4499 4.0603ZM125.549 96.9397H11.4499C7.69725 96.9397 4.64407 94.2086 4.64407 90.7117V28.6759H132.356V90.7117C132.356 94.2086 129.302 96.9397 125.549 96.9397Z" fill="#2F4858"/>
<path d="M35.7913 22.0859C40.4272 22.0859 44.1988 18.6714 44.1988 14.4743C44.1988 10.2773 40.4272 6.86279 35.7913 6.86279C31.1554 6.86279 27.3838 10.2775 27.3838 14.4743C27.3838 18.6712 31.1554 22.0859 35.7913 22.0859ZM35.7913 10.9231C37.8663 10.9231 39.5547 12.5163 39.5547 14.4743C39.5547 16.4324 37.8663 18.0256 35.7913 18.0256C33.7163 18.0256 32.0279 16.4324 32.0279 14.4743C32.0279 12.5163 33.7163 10.9231 35.7913 10.9231ZM55.5686 22.0859C60.2046 22.0859 63.9761 18.6714 63.9761 14.4743C63.9761 10.2773 60.2046 6.86279 55.5686 6.86279C50.9327 6.86279 47.1611 10.2775 47.1611 14.4743C47.1611 18.6712 50.9327 22.0859 55.5686 22.0859ZM55.5686 10.9231C57.644 10.9231 59.3321 12.5163 59.3321 14.4743C59.3321 16.4324 57.644 18.0256 55.5686 18.0256C53.4933 18.0256 51.8052 16.4324 51.8052 14.4743C51.8052 12.5163 53.4939 10.9231 55.5686 10.9231ZM16.0139 22.0859C20.6499 22.0859 24.4215 18.6714 24.4215 14.4743C24.4215 10.2773 20.6499 6.86279 16.0139 6.86279C11.378 6.86279 7.60645 10.2775 7.60645 14.4743C7.60645 18.6712 11.378 22.0859 16.0139 22.0859ZM16.0139 10.9231C18.089 10.9231 19.7774 12.5163 19.7774 14.4743C19.7774 16.4324 18.089 18.0256 16.0139 18.0256C13.9389 18.0256 12.2505 16.4324 12.2505 14.4743C12.2505 12.5163 13.9386 10.9231 16.0139 10.9231ZM94.6229 44.917C94.6229 44.3785 94.3783 43.8621 93.9428 43.4814C93.5074 43.1007 92.9167 42.8868 92.3009 42.8868H44.6992C44.0834 42.8868 43.4927 43.1007 43.0573 43.4814C42.6218 43.8621 42.3772 44.3785 42.3772 44.917V86.535C42.3772 87.0735 42.6218 87.5898 43.0573 87.9706C43.4927 88.3513 44.0834 88.5652 44.6992 88.5652H92.3009C92.9167 88.5652 93.5074 88.3513 93.9428 87.9706C94.3783 87.5898 94.6229 87.0735 94.6229 86.535V44.917ZM63.2755 46.9471H73.7246V52.3562L69.2991 51.0074C68.7859 50.8546 68.2293 50.8546 67.7161 51.0074L63.2755 52.3562V46.9471ZM89.9789 84.5049H47.0212V46.9471H58.6314V55.22C58.6384 55.5461 58.7336 55.8662 58.9091 56.1541C59.0847 56.442 59.3357 56.6894 59.6416 56.8762C59.9475 57.0631 60.2996 57.184 60.6691 57.2291C61.0387 57.2741 61.4152 57.2421 61.7679 57.1357L68.4925 55.0751L75.2131 57.1357C75.4607 57.2115 75.7213 57.2502 75.9837 57.2501C76.4747 57.2503 76.9542 57.1198 77.3583 56.8761C77.6649 56.6899 77.9165 56.4426 78.0922 56.1547C78.2679 55.8667 78.3626 55.5463 78.3687 55.22V46.9471H89.9789V84.5049Z" fill="#2F4858"/>
<path d="M57.074 67.2488H72.0456C72.6614 67.2488 73.2521 67.0349 73.6875 66.6542C74.123 66.2734 74.3676 65.7571 74.3676 65.2186C74.3676 64.6802 74.123 64.1638 73.6875 63.7831C73.2521 63.4024 72.6614 63.1885 72.0456 63.1885H57.074C56.4581 63.1885 55.8675 63.4024 55.4321 63.7831C54.9966 64.1638 54.752 64.6802 54.752 65.2186C54.752 65.7571 54.9966 66.2734 55.4321 66.6542C55.8675 67.0349 56.4581 67.2488 57.074 67.2488ZM57.074 70.294C56.4581 70.294 55.8675 70.5079 55.4321 70.8886C54.9966 71.2693 54.752 71.7857 54.752 72.3242C54.752 72.8626 54.9966 73.379 55.4321 73.7597C55.8675 74.1404 56.4581 74.3543 57.074 74.3543H79.9254C80.5413 74.3543 81.1319 74.1404 81.5673 73.7597C82.0028 73.379 82.2475 72.8626 82.2475 72.3242C82.2475 71.7857 82.0028 71.2693 81.5673 70.8886C81.1319 70.5079 80.5413 70.294 79.9254 70.294H57.074Z" fill="#2F4858"/>
</svg>
